<?xml version="1.0" encoding="UTF-8"?> <svg xmlns="http://www.w3.org/2000/svg" width="849.505" height="181.125" viewBox="0 0 849.505 181.125"> <metadata> <?xpacket begin="﻿" id="W5M0MpCehiHzreSzNTczkc9d"?> <?xpacket end="w"?> </metadata> <defs> <style> .cls-1 { fill: #292929; fill-rule: evenodd; } </style> </defs> <path id="_.ДИЗАЙН_" data-name=".ДИЗАЙН, " class="cls-1" d="M212.881,499.545H193.212v20.668h19.669V499.545Zm120.2,5.469h-7.731V441.906H266.92a173.355,173.355,0,0,1-3.234,34.289,123.238,123.238,0,0,1-9.335,28.819h-5.942V538.2h18.564V519.95h47.542V538.2h18.564V505.014Zm-59.374,0a120.423,120.423,0,0,0,7.7-21.535,143.5,143.5,0,0,0,4.181-26.427h19.564v47.962H273.705Zm168.213-63.108h-21.51l-30.239,47.173V441.906H370.5v78.307h19.248l32.5-52.117v52.117h19.669V441.906ZM543.973,488.58a17.669,17.669,0,0,0-4.313-5.443,19.672,19.672,0,0,0-5.706-3.34,31.6,31.6,0,0,0-5.969-1.656v-0.789a21.207,21.207,0,0,0,11.228-6.469,16.666,16.666,0,0,0,4.339-11.517q0-8.94-8.073-13.963t-24.165-5.022a79.715,79.715,0,0,0-16.172,1.6,96.318,96.318,0,0,0-13.121,3.55V462h1.948q2.265-1.052,4.319-2.077a49.85,49.85,0,0,1,5.476-2.235q3.159-1.051,6.635-1.841a33.981,33.981,0,0,1,7.53-.789q6.793,0,10.716,1.789a5.967,5.967,0,0,1,3.923,5.732,10.477,10.477,0,0,1-.606,3.839,6.718,6.718,0,0,1-2.239,2.787,11.091,11.091,0,0,1-4.321,1.709,33.067,33.067,0,0,1-6.8.605H494.7V485.5h14.436a49.009,49.009,0,0,1,6.874.421,13.892,13.892,0,0,1,4.874,1.525,7.493,7.493,0,0,1,2.871,3.1,11.336,11.336,0,0,1,.922,4.943,9.753,9.753,0,0,1-1.264,5.233,10.985,10.985,0,0,1-3.843,3.55,17.5,17.5,0,0,1-5.739,2.1,38.8,38.8,0,0,1-7.582.683,30.881,30.881,0,0,1-7.5-.815,66.2,66.2,0,0,1-7.029-2.235,50.86,50.86,0,0,1-5.976-2.656q-2.975-1.549-4.449-2.393h-1.895v17.671a80.049,80.049,0,0,0,13.384,3.707,83.848,83.848,0,0,0,15.751,1.394,66.753,66.753,0,0,0,16.3-1.709,35.992,35.992,0,0,0,11.517-5.023,20.516,20.516,0,0,0,6.968-7.836,22.719,22.719,0,0,0,2.34-10.307A17.9,17.9,0,0,0,543.973,488.58Zm84.542-46.674H605.27l-28.925,78.307H596.7l5.455-15.83h28.978l5.455,15.83h20.855Zm-21.51,48.12,9.636-28.054,9.634,28.054h-19.27Zm156.8-48.12H742.3l-30.239,47.173V441.906H692.389v78.307h19.248l32.5-52.117v52.117h19.669V441.906Zm-25.086-25.822q-0.107,5.679-2.419,8.257t-8.1,2.577q-5.785,0-8.1-2.551t-2.419-8.283H700.014q0.052,9.781,7.416,15.356t20.773,5.575q13.41,0,20.773-5.575t7.415-15.356h-17.67Zm138.658,25.822h-20.2v28.662H827.365V441.906h-20.2v78.307h20.2v-34.5h29.819v34.5h20.2V441.906Zm45.888,57.639-10.361,40.126h11.728l18.933-40.126h-20.3Z" transform="translate(-192.875 -416.094)"></path> <path id="КОТОРЫЙ_ЗАПОМНЯТ" data-name="КОТОРЫЙ ЗАПОМНЯТ" class="cls-1" d="M213,596.687h8.134l-10.433-16,10.123-14.941h-7.559l-8.134,12.51H200v-12.51h-7.117v30.944H200V584.221h4.951Zm47.343,0.53a17.927,17.927,0,0,0,8.665-2.078,15.783,15.783,0,0,0,0-27.849,19.149,19.149,0,0,0-17.351,0,15.421,15.421,0,0,0-6.056,5.725,16.46,16.46,0,0,0,0,16.4,15.419,15.419,0,0,0,6.056,5.724,18.049,18.049,0,0,0,8.686,2.078h0Zm0-6.1a9.82,9.82,0,0,1-4.951-1.26,9.04,9.04,0,0,1-3.47-3.515,11.063,11.063,0,0,1,0-10.255,9.04,9.04,0,0,1,3.47-3.515,10.364,10.364,0,0,1,9.9,0,9.033,9.033,0,0,1,3.47,3.515,11.063,11.063,0,0,1,0,10.255,9.033,9.033,0,0,1-3.47,3.515,9.82,9.82,0,0,1-4.951,1.26h0Zm66.883-25.374H300.394v5.835h9.858v25.109h7.073V571.578h9.9v-5.835Zm40.05,31.474a17.923,17.923,0,0,0,8.664-2.078,15.783,15.783,0,0,0,0-27.849,19.147,19.147,0,0,0-17.35,0,15.415,15.415,0,0,0-6.056,5.725,16.453,16.453,0,0,0,0,16.4,15.412,15.412,0,0,0,6.056,5.724,18.049,18.049,0,0,0,8.686,2.078h0Zm0-6.1a9.815,9.815,0,0,1-4.951-1.26,9.04,9.04,0,0,1-3.47-3.515,11.063,11.063,0,0,1,0-10.255,9.04,9.04,0,0,1,3.47-3.515,10.364,10.364,0,0,1,9.9,0,9.047,9.047,0,0,1,3.47,3.515,11.063,11.063,0,0,1,0,10.255,9.047,9.047,0,0,1-3.47,3.515,9.82,9.82,0,0,1-4.951,1.26h0Zm57.069-25.374H410.952v30.944h7.161v-8.532h6.233a17.432,17.432,0,0,0,7.139-1.348,10.423,10.423,0,0,0,4.664-3.89,11.669,11.669,0,0,0,0-11.914,10.616,10.616,0,0,0-4.664-3.89,17.2,17.2,0,0,0-7.139-1.37h0Zm-0.4,16.577h-5.835V571.578h5.835a7.524,7.524,0,0,1,4.907,1.392,4.9,4.9,0,0,1,1.68,4,4.849,4.849,0,0,1-1.68,3.956,7.518,7.518,0,0,1-4.907,1.393h0Zm54.771-6.41H470.85V565.743h-7.117v30.944H477.7q6.055,0,9.394-2.763t3.337-8.024q0-4.95-3.028-7.47t-8.686-2.52h0ZM477.3,591.382H470.85V581.215H477.3q5.923,0,5.924,4.818a5,5,0,0,1-1.57,3.979,6.4,6.4,0,0,1-4.354,1.37h0Zm17.064,5.305h7.117V565.743h-7.117v30.944Zm36.027,0h6.763l14.765-20.114v20.114H559V565.743h-6.72L537.512,585.9V565.743H530.4v30.944Zm14.278-32.933q4.287,0,6.41-1.724a6.231,6.231,0,0,0,2.166-5.04h-4.907a3.166,3.166,0,0,1-.972,2.409,3.957,3.957,0,0,1-2.7.818q-3.581,0-3.669-3.227H536.1q0.088,6.764,8.576,6.764h0Zm94.555,16.8A7.691,7.691,0,0,0,642.5,577.9a6.74,6.74,0,0,0,1.194-3.934,6.893,6.893,0,0,0-1.813-4.73,11.35,11.35,0,0,0-4.862-3.094,20.182,20.182,0,0,0-6.675-1.061,22.9,22.9,0,0,0-10.61,2.519l2.166,5.57a16.591,16.591,0,0,1,4.112-1.657,16.924,16.924,0,0,1,4.2-.553,8.833,8.833,0,0,1,4.487,1.017,3.138,3.138,0,0,1,1.746,2.829,2.84,2.84,0,0,1-1.216,2.431,5.656,5.656,0,0,1-3.381.884h-7.029v5.393h7.559a7.437,7.437,0,0,1,3.912.884,2.874,2.874,0,0,1,1.437,2.609,3.547,3.547,0,0,1-2.1,3.227,10.908,10.908,0,0,1-5.282,1.149,18.948,18.948,0,0,1-4.8-.641,16.643,16.643,0,0,1-4.486-1.879l-2.211,5.128a23.217,23.217,0,0,0,5.99,2.431,25.87,25.87,0,0,0,6.344.8,20.859,20.859,0,0,0,6.918-1.105,11.77,11.77,0,0,0,5.017-3.183,7.121,7.121,0,0,0,1.857-4.907,7.261,7.261,0,0,0-1.525-4.575,8.805,8.805,0,0,0-4.222-2.895h0Zm56.317,16.135h7.515l-13.836-30.944h-7.073l-13.792,30.944H675.7l2.741-6.631H692.8Zm-14.809-12.069,4.907-11.847,4.907,11.847h-9.814Zm47.654-18.875v30.944h7.117V571.578h13.969v25.109h7.117V565.743h-28.2Zm71.877,31.474a17.927,17.927,0,0,0,8.665-2.078,15.783,15.783,0,0,0,0-27.849,19.149,19.149,0,0,0-17.351,0,15.421,15.421,0,0,0-6.056,5.725,16.46,16.46,0,0,0,0,16.4,15.419,15.419,0,0,0,6.056,5.724,18.049,18.049,0,0,0,8.686,2.078h0Zm0-6.1a9.82,9.82,0,0,1-4.951-1.26,9.04,9.04,0,0,1-3.47-3.515,11.063,11.063,0,0,1,0-10.255,9.04,9.04,0,0,1,3.47-3.515,10.364,10.364,0,0,1,9.9,0,9.033,9.033,0,0,1,3.47,3.515,11.063,11.063,0,0,1,0,10.255,9.033,9.033,0,0,1-3.47,3.515,9.82,9.82,0,0,1-4.951,1.26h0Zm78.553,5.57-0.044-30.944h-5.924l-11.4,19.229-11.581-19.229h-5.924v30.944h6.719V578.518l9.107,14.9h3.182l9.107-15.251,0.044,18.523h6.719Zm50.129-30.944v12.2H914.892v-12.2H907.73v30.944h7.162V584h14.057v12.687h7.161V565.743h-7.161Zm47.476,0a16.69,16.69,0,0,0-7.073,1.392,10.617,10.617,0,0,0-4.642,3.979,11.3,11.3,0,0,0-1.635,6.166,11.142,11.142,0,0,0,1.68,6.211,10.113,10.113,0,0,0,4.818,3.868l-6.454,9.328h7.559l5.482-8.223H982.7v8.223h7.073V565.743h-13.35Zm0.177,5.835h6.1v11.228h-6.277a6.4,6.4,0,0,1-4.553-1.459,5.432,5.432,0,0,1-1.548-4.155,5.289,5.289,0,0,1,1.614-4.2,6.871,6.871,0,0,1,4.664-1.414h0Zm65.778-5.835h-26.83v5.835h9.85v25.109h7.08V571.578h9.9v-5.835Z" transform="translate(-192.875 -416.094)"></path> </svg> 