<svg id="Layer_1" data-name="Layer 1" xmlns="http://www.w3.org/2000/svg" viewBox="0 0 101 101"><title>Artboard 2 copy 2</title><path d="M83.34,13.76A1.5,1.5,0,0,0,82,13.6L60.56,22H39.5l-.16,0a1.48,1.48,0,0,0-.65.09L17,30.64A1.5,1.5,0,0,0,16,32V84a1.5,1.5,0,0,0,2,1.4L39.46,77h22l.29,0,.14,0,.14,0,21-8.54A1.5,1.5,0,0,0,84,67V15A1.5,1.5,0,0,0,83.34,13.76ZM19,33.06,38,25.6V74.34L19,81.8ZM41,25H60V74H41ZM81,66,63,73.27v-49L81,17.2Z"/><path d="M66.6,37a1.49,1.49,0,0,0,.59-.12l10.34-4.41a1.5,1.5,0,1,0-1.18-2.76L66,34.1A1.5,1.5,0,0,0,66.6,37Z"/><path d="M66.6,43.28a1.49,1.49,0,0,0,.59-.12l10.34-4.41A1.5,1.5,0,1,0,76.35,36L66,40.4a1.5,1.5,0,0,0,.59,2.88Z"/><path d="M76.35,42.29,66,46.7a1.5,1.5,0,1,0,1.18,2.76l10.34-4.41a1.5,1.5,0,1,0-1.18-2.76Z"/></svg>