<svg id="Layer_1" data-name="Layer 1" xmlns="http://www.w3.org/2000/svg" viewBox="0 0 101 101"><title>Artboard 2 copy 3</title><path d="M85.5,28H63V18.5A1.5,1.5,0,0,0,61.5,17h-48A1.5,1.5,0,0,0,12,18.5v54A1.5,1.5,0,0,0,13.5,74h24a1.49,1.49,0,0,0,.5-.09V83.5A1.5,1.5,0,0,0,39.5,85h46A1.5,1.5,0,0,0,87,83.5v-54A1.5,1.5,0,0,0,85.5,28ZM46,28l14-6.76V28ZM37.5,71H15V20H55.67L38.85,28.15l-.09.05-.13.08-.11.09-.1.1-.1.12-.08.11-.07.13L38.1,29s0,.09,0,.14,0,.09,0,.14a1.49,1.49,0,0,0,0,.16s0,.06,0,.1V71.09A1.49,1.49,0,0,0,37.5,71ZM84,82H41V31H84Z"/></svg>