<?xml version="1.0" encoding="UTF-8"?> <!-- Generator: Adobe Illustrator 19.0.0, SVG Export Plug-In . SVG Version: 6.00 Build 0) --> <svg xmlns="http://www.w3.org/2000/svg" xmlns:xlink="http://www.w3.org/1999/xlink" id="Layer_1" x="0px" y="0px" viewBox="0 0 512 512" style="enable-background:new 0 0 512 512;" xml:space="preserve"> <g> <g> <path d="M307.307,81.236h-8.551c-4.427,0-8.017,3.589-8.017,8.017s3.589,8.017,8.017,8.017h8.551c4.427,0,8.017-3.589,8.017-8.017 S311.734,81.236,307.307,81.236z"></path> </g> </g> <g> <g> <path d="M358.614,123.992h-17.102c-4.427,0-8.017,3.589-8.017,8.017s3.589,8.017,8.017,8.017h17.102 c4.427,0,8.017-3.589,8.017-8.017S363.041,123.992,358.614,123.992z"></path> </g> </g> <g> <g> <path d="M315.858,175.299h-8.551c-4.427,0-8.017,3.589-8.017,8.017s3.589,8.017,8.017,8.017h8.551 c4.427,0,8.017-3.589,8.017-8.017S320.285,175.299,315.858,175.299z"></path> </g> </g> <g> <g> <path d="M136.284,235.157h-8.551c-4.427,0-8.017,3.589-8.017,8.017s3.589,8.017,8.017,8.017h8.551 c4.427,0,8.017-3.589,8.017-8.017S140.711,235.157,136.284,235.157z"></path> </g> </g> <g> <g> <path d="M196.142,277.912H179.04c-4.427,0-8.017,3.589-8.017,8.017s3.589,8.017,8.017,8.017h17.102 c4.427,0,8.017-3.589,8.017-8.017S200.569,277.912,196.142,277.912z"></path> </g> </g> <g> <g> <path d="M503.983,354.873h-78.216c-1.603,0-3.17,0.481-4.498,1.381l-57.095,38.695c-3.665,2.484-4.623,7.468-2.139,11.134 c1.55,2.287,4.075,3.52,6.643,3.52c1.548,0,3.113-0.448,4.49-1.381l55.059-37.315h75.756c4.427,0,8.017-3.589,8.017-8.017 S508.411,354.873,503.983,354.873z"></path> </g> </g> <g> <g> <path d="M503.983,269.361h-79.386c6.933-19.326,10.442-39.598,10.442-60.392c0-98.723-80.317-179.04-179.04-179.04 c-39.104,0-76.254,12.381-107.435,35.804c-3.54,2.659-4.253,7.684-1.595,11.224c2.659,3.539,7.684,4.253,11.224,1.595 c6.827-5.129,13.973-9.67,21.378-13.619v15.768c0,3.821,2.697,7.111,6.444,7.861l38.194,7.638l7.08,21.24 c0.798,2.394,2.677,4.272,5.071,5.071l20.172,6.724v25.999l-15.755,23.634c-0.878,1.317-1.347,2.865-1.347,4.447v25.653 c0,3.821,2.697,7.111,6.444,7.861l36.311,7.262v19.082c0,2.126,0.844,4.165,2.348,5.668l26.74,26.741 c-20.517,3.586-36.541,6.316-36.894,6.376c-0.5,0.086-0.991,0.217-1.465,0.396c-6.284,2.352-11.276,7.01-14.056,13.116 c-2.78,6.107-3.016,12.93-0.665,19.213c2.399,6.408,9.51,16.905,30.178,15.202c12.274-1.01,23.149-1.728,31.02-2.198l-3.927,8.8 l-54.898,26.948l-5.695-1.153c2.478-11.918-4.046-24.227-15.793-28.623c-0.475-0.178-0.965-0.31-1.465-0.395 c-0.168-0.029-3.893-0.664-9.957-1.706c1.7-1.133,3.399-2.266,5.099-3.399c2.373-1.582,4.62-3.1,5.365-6.082l8.551-34.205 c0.159-0.636,0.239-1.289,0.239-1.944v-42.756c0-3.45-2.208-6.514-5.481-7.605l-23.858-7.953L193.82,203.86l-16.662-24.992 c-1.487-2.23-3.989-3.57-6.67-3.57h-34.205c-3.037,0-5.813,1.716-7.17,4.432l-8.447,16.894l-2.019-6.058v-24.353 c0-3.45-2.208-6.514-5.481-7.605l-10.999-3.666c7.465-21.281,19.348-40.942,35.175-57.738c3.037-3.223,2.886-8.296-0.337-11.332 c-3.223-3.037-8.296-2.885-11.332,0.337C94.26,119.544,76.96,163.142,76.96,208.969c0,37.629,11.927,74.341,33.793,104.683 c-6.643,1.468-12.952,4.293-18.809,6.923l-0.205,0.093H8.017c-4.427,0-8.017,3.589-8.017,8.017s3.589,8.017,8.017,8.017h85.437 c1.85,0,3.42-0.764,5.061-1.5c8.397-3.772,17.084-7.675,24.38-6.211c31.392,6.286,102.469,18.449,111.163,19.933 c4.296,1.961,6.41,6.958,4.729,11.448c-1.441,3.851-6.098,5.481-13.846,4.842c-25.103-2.066-44.456-2.929-44.649-2.937 c-5.839-0.246-10.065,5.917-7.674,11.276l10.454,23.427c0.764,1.713,2.105,3.103,3.788,3.929l59.953,29.43 c1.56,0.765,3.326,1.003,5.032,0.679c2.365-0.451,58.151-11.088,77.169-15.626c10.608-2.532,12.368,0.962,13.653,3.515 c1.135,2.252,1.297,4.793,0.456,7.154c-0.832,2.336-2.525,4.184-4.774,5.213l-83.594,34.618l-90.035-8.185l-73.993-50.147 c-1.324-0.898-2.891-1.379-4.495-1.379H8.017c-4.427,0-8.017,3.589-8.017,8.017c0,4.427,3.589,8.017,8.017,8.017h75.756 l73.667,49.926c1.122,0.761,2.421,1.225,3.771,1.348l94.063,8.551c0.243,0.022,0.484,0.033,0.726,0.033 c1.05,0,2.093-0.206,3.068-0.61l85.535-35.423c0.067-0.028,0.134-0.057,0.2-0.086c6.24-2.784,11.135-8.076,13.427-14.513 c2.326-6.531,1.884-13.544-1.242-19.749c-3.991-7.923-12.732-16.418-31.693-11.895c-16.355,3.903-62.326,12.765-73.821,14.969 l-54.941-26.969l-3.927-8.8c7.868,0.468,18.739,1.186,31.02,2.198c10.227,0.84,17.131-1.307,21.792-4.465l14.646,2.965 c1.724,0.348,3.544,0.114,5.123-0.662l59.953-29.43c1.684-0.826,3.024-2.217,3.788-3.929l10.454-23.427 c2.386-5.348-1.831-11.537-7.674-11.276c-0.192,0.009-19.546,0.87-44.649,2.937c-7.745,0.639-12.404-0.991-13.846-4.842 c-1.68-4.489,0.434-9.486,4.73-11.448c8.692-1.484,79.77-13.647,111.163-19.933c7.297-1.461,15.982,2.439,24.38,6.211 c1.642,0.736,3.21,1.5,5.061,1.5h85.437c4.427,0,8.017-3.589,8.017-8.017C512,272.951,508.411,269.361,503.983,269.361z M204.716,327.587c-23.214-4.047-53.556-9.424-73.235-13.247c-0.211-0.351-0.441-0.694-0.712-1.018 c-24.359-29.201-37.775-66.261-37.775-104.354c0-13.161,1.571-26.118,4.614-38.646l5.006,1.669v19.875 c0,0.862,0.139,1.718,0.412,2.535l8.551,25.653c2.21,6.631,11.646,7.311,14.775,1.05l14.886-29.773h24.96l14.722,22.083 c0.293,0.439,0.628,0.849,1.002,1.222l25.653,25.653c0.88,0.88,1.953,1.544,3.134,1.937l20.172,6.724v35.991l-7.56,30.241 L204.716,327.587z M350.597,208.969v33.41l-5.441,27.204c-4.844,0.871-9.748,1.746-14.598,2.605l-32.337-32.335V217.52 c0-3.821-2.697-7.111-6.444-7.861l-36.311-7.262v-16.654l15.755-23.634c0.878-1.317,1.347-2.865,1.347-4.447v-34.205 c0-3.45-2.208-6.514-5.481-7.605l-21.85-7.283l-7.283-21.85c-0.91-2.729-3.212-4.762-6.034-5.326l-36.311-7.262V57.48 c19.01-7.592,39.391-11.517,60.392-11.517c76.534,0,140.907,53.022,158.341,124.261c-0.326,0.459-0.611,0.956-0.842,1.493 l-8.863,20.684h-20.368c-0.862,0-1.718,0.139-2.535,0.412l-25.653,8.551C352.804,202.455,350.597,205.518,350.597,208.969z M409.218,264.722c-7.306-2.672-15.114-4.391-23.261-2.76c-6.519,1.305-14.775,2.869-23.833,4.537l4.35-21.754 c0.104-0.517,0.156-1.044,0.156-1.572v-28.426l18.938-6.313h24.353c3.207,0,6.106-1.911,7.369-4.858l1.475-3.443 c0.157,2.926,0.242,5.871,0.242,8.835C419.006,228.184,415.712,246.903,409.218,264.722z"></path> </g> </g> <g> </g> <g> </g> <g> </g> <g> </g> <g> </g> <g> </g> <g> </g> <g> </g> <g> </g> <g> </g> <g> </g> <g> </g> <g> </g> <g> </g> <g> </g> </svg> 